HIERARCHY
ROOT Hips
{
	OFFSET 0.000000 100.052002 0.000000
	CHANNELS 6 Xposition Yposition Zposition Xrotation Yrotation Zrotation
	JOINT Spine
	{
		OFFSET 0.000000 9.717300 -1.180200
		CHANNELS 6 Xposition Yposition Zposition Xrotation Yrotation Zrotation
		JOINT Spine1
		{
			OFFSET 0.000000 11.336784 -1.376941
			CHANNELS 3 Xrotation Yrotation Zrotation
			JOINT Spine2
			{
				OFFSET 0.000000 12.956383 -1.573654
				CHANNELS 3 Xrotation Yrotation Zrotation
				JOINT Neck
				{
					OFFSET 0.000000 14.575882 -1.770355
					CHANNELS 6 Xposition Yposition Zposition Xrotation Yrotation Zrotation
					JOINT Head
					{
						OFFSET 0.000000 6.720200 1.972200
						CHANNELS 6 Xposition Yposition Zposition Xrotation Yrotation Zrotation
						JOINT HeadTop_End
						{
							OFFSET 0.000000 20.999802 6.162800
							CHANNELS 6 Xposition Yposition Zposition Xrotation Yrotation Zrotation
							End Site
							{
								OFFSET 0.000000 21.885422 0.000000
							}
						}
					}
				}
				JOINT LeftShoulder
				{
					OFFSET 6.140200 12.877686 -1.799413
					CHANNELS 6 Xposition Yposition Zposition Xrotation Yrotation Zrotation
					JOINT LeftArm
					{
						OFFSET 12.558889 -3.380020 -0.058110
						CHANNELS 3 Xrotation Yrotation Zrotation
						JOINT LeftForeArm
						{
							OFFSET 25.560802 0.000000 0.000000
							CHANNELS 3 Xrotation Yrotation Zrotation
							JOINT LeftHand
							{
								OFFSET 23.404095 0.000000 0.000000
								CHANNELS 3 Xrotation Yrotation Zrotation
								JOINT LeftHandThumb1
								{
									OFFSET 4.128799 -1.207092 2.573364
									CHANNELS 6 Xposition Yposition Zposition Xrotation Yrotation Zrotation
									JOINT LeftHandThumb2
									{
										OFFSET 3.106247 -1.793396 1.793392
										CHANNELS 6 Xposition Yposition Zposition Xrotation Yrotation Zrotation
										JOINT LeftHandThumb3
										{
											OFFSET 2.788620 -1.610016 1.610011
											CHANNELS 6 Xposition Yposition Zposition Xrotation Yrotation Zrotation
											JOINT LeftHandThumb4
											{
												OFFSET 2.332939 -1.346924 1.346924
												CHANNELS 6 Xposition Yposition Zposition Xrotation Yrotation Zrotation
												End Site
												{
													OFFSET 2.098068 -1.306122 1.721387
												}
											}
										}
									}
								}
								JOINT LeftHandIndex1
								{
									OFFSET 11.999931 -0.333878 2.508170
									CHANNELS 6 Xposition Yposition Zposition Xrotation Yrotation Zrotation
									JOINT LeftHandIndex2
									{
										OFFSET 3.298477 0.000000 0.000000
										CHANNELS 6 Xposition Yposition Zposition Xrotation Yrotation Zrotation
										JOINT LeftHandIndex3
										{
											OFFSET 3.081009 0.000000 0.000000
											CHANNELS 6 Xposition Yposition Zposition Xrotation Yrotation Zrotation
											JOINT LeftHandIndex4
											{
												OFFSET 2.712151 0.000000 0.000000
												CHANNELS 6 Xposition Yposition Zposition Xrotation Yrotation Zrotation
												End Site
												{
													OFFSET 2.712097 -0.000549 -0.016291
												}
											}
										}
									}
								}
								JOINT LeftHandMiddle1
								{
									OFFSET 12.393951 0.000000 0.000000
									CHANNELS 6 Xposition Yposition Zposition Xrotation Yrotation Zrotation
									JOINT LeftHandMiddle2
									{
										OFFSET 3.432213 0.000000 0.000000
										CHANNELS 6 Xposition Yposition Zposition Xrotation Yrotation Zrotation
										JOINT LeftHandMiddle3
										{
											OFFSET 3.160919 0.000000 0.000000
											CHANNELS 6 Xposition Yposition Zposition Xrotation Yrotation Zrotation
											JOINT LeftHandMiddle4
											{
												OFFSET 2.876404 0.000000 0.000000
												CHANNELS 3 Xrotation Yrotation Zrotation
												End Site
												{
													OFFSET 2.876404 0.000000 0.000000
												}
											}
										}
									}
								}
								JOINT LeftHandRing1
								{
									OFFSET 12.360489 -0.116104 -2.298636
									CHANNELS 6 Xposition Yposition Zposition Xrotation Yrotation Zrotation
									JOINT LeftHandRing2
									{
										OFFSET 2.726105 0.000000 0.000000
										CHANNELS 6 Xposition Yposition Zposition Xrotation Yrotation Zrotation
										JOINT LeftHandRing3
										{
											OFFSET 2.620300 0.000000 0.000000
											CHANNELS 6 Xposition Yposition Zposition Xrotation Yrotation Zrotation
											JOINT LeftHandRing4
											{
												OFFSET 2.226906 0.000000 0.000000
												CHANNELS 6 Xposition Yposition Zposition Xrotation Yrotation Zrotation
												End Site
												{
													OFFSET 2.226898 0.000153 0.003196
												}
											}
										}
									}
								}
								JOINT LeftHandPinky1
								{
									OFFSET 10.793266 -0.303589 -4.149957
									CHANNELS 6 Xposition Yposition Zposition Xrotation Yrotation Zrotation
									JOINT LeftHandPinky2
									{
										OFFSET 2.734612 0.000000 0.000000
										CHANNELS 6 Xposition Yposition Zposition Xrotation Yrotation Zrotation
										JOINT LeftHandPinky3
										{
											OFFSET 2.194000 0.000000 0.000000
											CHANNELS 6 Xposition Yposition Zposition Xrotation Yrotation Zrotation
											JOINT LeftHandPinky4
											{
												OFFSET 1.975510 0.000000 0.000000
												CHANNELS 6 Xposition Yposition Zposition Xrotation Yrotation Zrotation
												End Site
												{
													OFFSET 1.975502 -0.000275 -0.005493
												}
											}
										}
									}
								}
							}
						}
					}
				}
				JOINT RightShoulder
				{
					OFFSET -6.140200 12.877701 -1.741290
					CHANNELS 6 Xposition Yposition Zposition Xrotation Yrotation Zrotation
					JOINT RightArm
					{
						OFFSET -12.558887 -3.380020 0.058096
						CHANNELS 3 Xrotation Yrotation Zrotation
						JOINT RightForeArm
						{
							OFFSET -25.571100 0.000000 -0.000001
							CHANNELS 3 Xrotation Yrotation Zrotation
							JOINT RightHand
							{
								OFFSET -23.401703 0.000000 -0.000001
								CHANNELS 3 Xrotation Yrotation Zrotation
								JOINT RightHandThumb1
								{
									OFFSET -4.237885 -1.241806 2.593891
									CHANNELS 6 Xposition Yposition Zposition Xrotation Yrotation Zrotation
									JOINT RightHandThumb2
									{
										OFFSET -3.173721 -1.832352 1.832350
										CHANNELS 6 Xposition Yposition Zposition Xrotation Yrotation Zrotation
										JOINT RightHandThumb3
										{
											OFFSET -2.734779 -1.578934 1.578928
											CHANNELS 6 Xposition Yposition Zposition Xrotation Yrotation Zrotation
											JOINT RightHandThumb4
											{
												OFFSET -2.254745 -1.301773 1.301779
												CHANNELS 6 Xposition Yposition Zposition Xrotation Yrotation Zrotation
												End Site
												{
													OFFSET -2.004616 -1.260025 1.693210
												}
											}
										}
									}
								}
								JOINT RightHandIndex1
								{
									OFFSET -12.582405 -0.171967 2.675169
									CHANNELS 6 Xposition Yposition Zposition Xrotation Yrotation Zrotation
									JOINT RightHandIndex2
									{
										OFFSET -3.117424 0.000000 0.000000
										CHANNELS 6 Xposition Yposition Zposition Xrotation Yrotation Zrotation
										JOINT RightHandIndex3
										{
											OFFSET -2.856110 0.000000 0.000000
											CHANNELS 6 Xposition Yposition Zposition Xrotation Yrotation Zrotation
											JOINT RightHandIndex4
											{
												OFFSET -2.534607 0.000000 0.000000
												CHANNELS 6 Xposition Yposition Zposition Xrotation Yrotation Zrotation
												End Site
												{
													OFFSET -2.534599 -0.000092 -0.005299
												}
											}
										}
									}
								}
								JOINT RightHandMiddle1
								{
									OFFSET -12.213303 0.000000 -0.000000
									CHANNELS 6 Xposition Yposition Zposition Xrotation Yrotation Zrotation
									JOINT RightHandMiddle2
									{
										OFFSET -3.479240 0.000000 0.000000
										CHANNELS 6 Xposition Yposition Zposition Xrotation Yrotation Zrotation
										JOINT RightHandMiddle3
										{
											OFFSET -3.226028 0.000000 0.000000
											CHANNELS 6 Xposition Yposition Zposition Xrotation Yrotation Zrotation
											JOINT RightHandMiddle4
											{
												OFFSET -2.928001 0.000000 0.000000
												CHANNELS 6 Xposition Yposition Zposition Xrotation Yrotation Zrotation
												End Site
												{
													OFFSET -2.927994 -0.000046 -0.002500
												}
											}
										}
									}
								}
								JOINT RightHandRing1
								{
									OFFSET -12.155838 -0.109528 -2.139221
									CHANNELS 6 Xposition Yposition Zposition Xrotation Yrotation Zrotation
									JOINT RightHandRing2
									{
										OFFSET -2.821602 0.000000 0.000000
										CHANNELS 6 Xposition Yposition Zposition Xrotation Yrotation Zrotation
										JOINT RightHandRing3
										{
											OFFSET -2.687714 0.000000 0.000000
											CHANNELS 6 Xposition Yposition Zposition Xrotation Yrotation Zrotation
											JOINT RightHandRing4
											{
												OFFSET -2.368401 0.000000 0.000000
												CHANNELS 6 Xposition Yposition Zposition Xrotation Yrotation Zrotation
												End Site
												{
													OFFSET -2.368408 0.000122 0.004098
												}
											}
										}
									}
								}
								JOINT RightHandPinky1
								{
									OFFSET -10.912514 -0.136993 -4.154601
									CHANNELS 6 Xposition Yposition Zposition Xrotation Yrotation Zrotation
									JOINT RightHandPinky2
									{
										OFFSET -2.640511 0.000000 0.000000
										CHANNELS 6 Xposition Yposition Zposition Xrotation Yrotation Zrotation
										JOINT RightHandPinky3
										{
											OFFSET -2.149010 0.000000 0.000000
											CHANNELS 6 Xposition Yposition Zposition Xrotation Yrotation Zrotation
											JOINT RightHandPinky4
											{
												OFFSET -1.888405 0.000000 0.000000
												CHANNELS 6 Xposition Yposition Zposition Xrotation Yrotation Zrotation
												End Site
												{
													OFFSET -1.888397 -0.000076 -0.002499
												}
											}
										}
									}
								}
							}
						}
					}
				}
			}
		}
	}
	JOINT LeftUpLeg
	{
		OFFSET 8.078200 -5.402397 -0.535900
		CHANNELS 6 Xposition Yposition Zposition Xrotation Yrotation Zrotation
		JOINT LeftLeg
		{
			OFFSET 0.166247 -42.704498 -2.695473
			CHANNELS 3 Xrotation Yrotation Zrotation
			JOINT LeftFoot
			{
				OFFSET -0.166255 -42.074757 -2.882279
				CHANNELS 3 Xrotation Yrotation Zrotation
				JOINT LeftToeBase
				{
					OFFSET 1.133370 -9.116460 13.321884
					CHANNELS 3 Xrotation Yrotation Zrotation
					JOINT LeftToe_End
					{
						OFFSET 0.591577 -0.054453 6.177401
						CHANNELS 3 Xrotation Yrotation Zrotation
						End Site
						{
							OFFSET 0.591577 -0.054453 6.177402
						}
					}
				}
			}
		}
	}
	JOINT RightUpLeg
	{
		OFFSET -8.078200 -5.402397 -0.751800
		CHANNELS 6 Xposition Yposition Zposition Xrotation Yrotation Zrotation
		JOINT RightLeg
		{
			OFFSET -0.166221 -42.704521 -2.464558
			CHANNELS 3 Xrotation Yrotation Zrotation
			JOINT RightFoot
			{
				OFFSET 0.166220 -42.074753 -2.968993
				CHANNELS 3 Xrotation Yrotation Zrotation
				JOINT RightToeBase
				{
					OFFSET -1.133402 -9.116828 13.416508
					CHANNELS 3 Xrotation Yrotation Zrotation
					JOINT RightToe_End
					{
						OFFSET -0.591581 -0.054615 6.151378
						CHANNELS 3 Xrotation Yrotation Zrotation
						End Site
						{
							OFFSET -0.591581 -0.054615 6.151378
						}
					}
				}
			}
		}
	}
}
MOTION
Frames: 4
Frame Time: 0.033333
-0.425545 104.351631 12.194024 7.289009 -3.515172 6.344389 0.000001 9.717306 -1.180200 -1.691611 0.485120 -0.081629 -3.407542 1.116451 0.971386 -3.407650 1.118559 0.971275 0.000000 14.575872 -1.770353 2.823859 2.525677 -1.888418 -0.000001 6.720185 1.972200 2.823873 2.525679 -1.888417 0.000002 20.999832 6.162797 -0.000000 0.000000 -0.000000 6.140199 12.877664 -1.799410 -3.630999 12.025655 19.964599 -45.132418 -65.868821 29.865658 -0.000002 -12.025592 -0.000005 46.802430 -2.565527 -33.319425 4.128778 -1.207072 2.573369 -1.540053 3.690171 6.142354 3.106234 -1.793391 1.793394 3.946769 7.971396 0.752850 2.788611 -1.610025 1.610000 -0.575590 1.586260 2.542357 2.332947 -1.346918 1.346910 -0.000001 0.000000 -0.000000 11.999907 -0.333875 2.508169 -0.000008 -0.000001 0.000001 3.298502 -0.000005 -0.000003 0.000010 0.000004 -0.000041 3.081002 -0.000000 -0.000011 -0.000004 -0.000000 0.000003 2.712164 -0.000015 0.000005 0.000001 0.000000 0.000001 12.393929 0.000004 0.000010 -0.000013 -0.001925 0.015972 3.432207 -0.000001 0.000001 0.000021 0.001928 -0.015973 3.160923 -0.000001 0.000000 -0.000013 0.000003 -0.000008 -0.000001 -0.000002 0.000001 12.360458 -0.116097 -2.298630 -0.000009 0.000004 -0.000003 2.726094 -0.000033 0.000001 0.000010 -0.000002 -0.000002 2.620282 -0.000033 0.000009 -0.000015 0.000000 0.000001 2.226905 0.000003 -0.000009 0.000000 -0.000000 0.000000 10.793230 -0.303572 -4.149956 -0.018100 4.054262 0.511057 2.734592 -0.000007 -0.000007 -0.018063 -4.054256 -0.511063 2.194003 -0.000001 -0.000002 -0.000002 -0.000003 -0.000004 1.975499 -0.000015 0.000003 0.000000 -0.000001 -0.000002 -6.140204 12.877684 -1.741288 0.600699 -2.076533 5.758344 10.968854 -35.053009 56.256474 0.000015 12.914043 -0.000004 7.343143 -0.218408 -0.201448 -4.237886 -1.241818 2.593888 -1.849260 -3.581785 -6.586128 -3.173725 -1.832350 1.832343 4.645046 -8.656808 -0.231332 -2.734795 -1.578915 1.578942 -1.269835 0.126069 -2.098680 -2.254759 -1.301773 1.301791 -0.000000 -0.000003 -0.000001 -12.582402 -0.171976 2.675168 -0.000010 -0.000006 0.000005 -3.117429 0.000006 -0.000002 0.000004 0.000000 0.000039 -2.856106 0.000012 0.000001 0.000007 0.000004 0.000001 -2.534582 0.000011 -0.000006 0.000001 0.000001 -0.000001 -12.213307 0.000003 -0.000006 0.000001 -0.000002 -0.000001 -3.479253 0.000024 0.000000 -0.000004 0.000001 0.000002 -3.226013 -0.000002 -0.000004 0.000003 0.000001 -0.000000 -2.928008 -0.000018 -0.000004 -0.000000 0.000002 0.000002 -12.155837 -0.109533 -2.139223 -0.000004 -0.000006 0.000006 -2.821596 0.000013 0.000002 -0.000008 -0.000008 0.000029 -2.687705 -0.000022 0.000001 0.000007 0.000008 -0.000004 -2.368395 0.000001 -0.000002 -0.000001 0.000001 0.000001 -10.912526 -0.137006 -4.154601 -0.000006 -0.000002 -0.000004 -2.640521 0.000005 0.000001 0.000007 -0.000002 0.000007 -2.149022 0.000005 -0.000002 -0.000002 -0.000004 0.000002 -1.888406 -0.000017 0.000001 0.000001 -0.000001 0.000000 8.078202 -5.402407 -0.535899 -15.118395 5.992782 7.238465 10.224618 8.490729 0.646655 37.435058 8.520978 6.157827 -30.694112 0.720192 -5.759494 0.000000 0.000003 -0.000002 -8.078196 -5.402399 -0.751802 -22.485556 -5.630691 -22.025408 14.324522 -1.631695 -0.198229 32.490260 -6.688919 -13.999744 -29.997153 -0.335799 3.494255 0.000000 -0.000001 -0.000004 
0.566922 104.086830 12.085711 6.604017 -2.568805 6.292121 0.000001 9.717316 -1.180202 -1.568504 0.508812 -0.666098 -3.170365 1.208768 0.752231 -3.168558 1.215332 0.752239 -0.000001 14.575878 -1.770360 2.704070 2.366587 -2.125696 0.000001 6.720235 1.972201 2.704091 2.366588 -2.125694 -0.000001 20.999786 6.162802 -0.000000 -0.000000 0.000000 6.140194 12.877683 -1.799417 -3.604132 12.007474 19.764201 -45.719965 -64.445321 28.541576 0.000004 -14.452168 0.000012 41.984322 -0.269322 -32.757758 4.128793 -1.207064 2.573361 -1.540050 3.690172 6.142358 3.106250 -1.793396 1.793400 3.946772 7.971399 0.752850 2.788625 -1.610009 1.610010 -0.575587 1.586258 2.542361 2.332953 -1.346951 1.346911 0.000000 0.000000 0.000000 11.999925 -0.333871 2.508165 -0.000006 -0.000002 0.000003 3.298466 -0.000007 0.000002 0.000010 0.000009 -0.000038 3.081021 0.000004 -0.000002 -0.000004 -0.000004 -0.000002 2.712157 -0.000015 -0.000003 0.000002 -0.000001 0.000001 12.393915 0.000023 -0.000005 -0.000009 -0.001926 0.015974 3.432220 -0.000007 0.000003 0.000020 0.001930 -0.015972 3.160884 -0.000019 0.000005 -0.000011 0.000006 -0.000007 -0.000001 0.000001 0.000001 12.360483 -0.116075 -2.298646 -0.000006 0.000001 -0.000004 2.726100 -0.000032 -0.000000 0.000008 -0.000001 -0.000001 2.620313 -0.000018 -0.000002 -0.000013 0.000002 0.000001 2.226884 -0.000016 0.000006 0.000001 0.000002 0.000003 10.793221 -0.303571 -4.149961 -0.018095 4.054260 0.511061 2.734616 -0.000025 -0.000001 -0.018063 -4.054255 -0.511063 2.194016 0.000015 0.000000 -0.000003 -0.000002 -0.000003 1.975498 -0.000031 -0.000004 0.000001 -0.000001 -0.000001 -6.140203 12.877710 -1.741297 0.576578 -2.174768 5.653132 11.007625 -35.015043 56.968897 -0.000004 12.819116 0.000007 8.368292 -1.067445 0.630125 -4.237886 -1.241821 2.593888 -1.849260 -3.581782 -6.586132 -3.173730 -1.832350 1.832344 4.645045 -8.656815 -0.231330 -2.734775 -1.578912 1.578936 -1.269840 0.126071 -2.098679 -2.254742 -1.301762 1.301786 0.000003 0.000000 -0.000001 -12.582409 -0.171978 2.675170 -0.000013 -0.000004 0.000008 -3.117421 -0.000008 -0.000000 0.000005 0.000001 0.000038 -2.856106 0.000013 0.000000 0.000009 0.000006 0.000001 -2.534602 0.000001 -0.000002 -0.000000 -0.000001 0.000001 -12.213324 0.000014 0.000000 0.000001 0.000001 0.000002 -3.479250 0.000014 0.000000 -0.000002 0.000001 0.000004 -3.226028 -0.000014 -0.000000 0.000001 -0.000002 -0.000000 -2.928005 -0.000014 -0.000000 0.000001 -0.000001 0.000002 -12.155849 -0.109523 -2.139222 -0.000003 0.000001 0.000008 -2.821618 -0.000002 0.000002 -0.000009 -0.000012 0.000035 -2.687716 -0.000008 0.000003 0.000006 0.000007 -0.000005 -2.368402 0.000016 -0.000002 -0.000002 0.000001 0.000000 -10.912519 -0.137006 -4.154601 -0.000004 0.000000 0.000002 -2.640515 0.000008 -0.000001 0.000003 -0.000003 0.000008 -2.149015 -0.000023 0.000002 -0.000004 -0.000006 0.000006 -1.888410 -0.000001 -0.000001 0.000001 -0.000001 -0.000001 8.078199 -5.402382 -0.535901 -14.970830 5.452923 6.841232 12.678614 8.215995 0.571410 31.662930 6.071483 5.001288 -26.072644 0.527978 -5.144108 -0.000001 -0.000002 -0.000000 -8.078198 -5.402384 -0.751799 -21.753579 -5.576296 -22.664480 14.727618 -1.992706 -0.219994 31.538296 -6.757428 -14.696369 -29.633718 -0.317624 3.338412 0.000001 0.000001 0.000001 
1.680228 103.744568 11.963726 6.296295 -1.441052 6.055493 -0.000001 9.717308 -1.180199 -1.465451 0.488937 -1.003328 -2.968181 1.175706 0.698650 -2.965154 1.184868 0.698716 -0.000000 14.575864 -1.770355 2.432065 2.311499 -2.326305 0.000001 6.720193 1.972200 2.432068 2.311502 -2.326307 0.000000 20.999802 6.162801 -0.000000 0.000000 -0.000000 6.140195 12.877688 -1.799415 -3.559176 12.002845 19.363762 -49.847325 -62.342080 22.847002 0.000003 -18.663652 -0.000018 31.479300 4.882440 -31.313187 4.128809 -1.207072 2.573364 -1.540053 3.690176 6.142354 3.106238 -1.793394 1.793390 3.946773 7.971401 0.752852 2.788623 -1.610036 1.610009 -0.575589 1.586261 2.542355 2.332927 -1.346922 1.346945 -0.000002 -0.000003 0.000002 11.999939 -0.333876 2.508167 -0.000008 -0.000006 0.000000 3.298467 -0.000005 -0.000012 0.000011 0.000005 -0.000039 3.081022 -0.000002 -0.000007 -0.000001 0.000002 0.000001 2.712146 -0.000015 -0.000002 -0.000002 -0.000000 0.000002 12.393956 0.000004 0.000001 -0.000012 -0.001925 0.015970 3.432214 0.000015 -0.000003 0.000020 0.001928 -0.015972 3.160913 0.000005 0.000008 -0.000016 0.000006 -0.000007 0.000001 -0.000000 0.000000 12.360492 -0.116110 -2.298637 -0.000012 -0.000001 -0.000004 2.726101 -0.000016 -0.000000 0.000008 -0.000002 -0.000001 2.620291 -0.000005 -0.000000 -0.000015 0.000002 0.000003 2.226892 -0.000002 0.000000 0.000001 -0.000001 -0.000001 10.793254 -0.303580 -4.149954 -0.018100 4.054259 0.511057 2.734597 -0.000009 -0.000000 -0.018063 -4.054252 -0.511062 2.193996 0.000009 -0.000001 -0.000002 0.000000 -0.000001 1.975516 -0.000015 0.000001 0.000002 -0.000000 0.000000 -6.140199 12.877690 -1.741293 0.559019 -2.227043 5.517379 11.225423 -34.699065 57.688208 0.000013 13.867384 -0.000033 8.744392 -1.901276 1.697579 -4.237897 -1.241818 2.593887 -1.849261 -3.581789 -6.586133 -3.173734 -1.832358 1.832344 4.645042 -8.656808 -0.231328 -2.734796 -1.578918 1.578940 -1.269836 0.126069 -2.098679 -2.254755 -1.301761 1.301783 0.000003 -0.000003 0.000001 -12.582410 -0.171989 2.675168 -0.000011 -0.000004 0.000005 -3.117417 0.000018 0.000003 0.000005 -0.000001 0.000037 -2.856106 0.000015 0.000000 0.000012 0.000005 0.000001 -2.534588 0.000012 -0.000001 0.000001 0.000001 -0.000001 -12.213323 -0.000018 -0.000002 0.000003 0.000000 -0.000001 -3.479246 0.000020 -0.000001 -0.000001 0.000004 0.000005 -3.226019 -0.000011 0.000001 0.000003 -0.000003 -0.000001 -2.928008 0.000000 0.000001 -0.000001 -0.000001 -0.000001 -12.155842 -0.109520 -2.139221 -0.000005 -0.000003 0.000005 -2.821596 0.000020 -0.000003 -0.000009 -0.000008 0.000029 -2.687716 0.000013 0.000000 0.000003 0.000005 -0.000005 -2.368395 -0.000014 0.000004 0.000002 -0.000002 0.000001 -10.912519 -0.137020 -4.154601 -0.000004 -0.000000 -0.000001 -2.640512 0.000005 0.000004 0.000006 -0.000002 0.000007 -2.149008 -0.000025 -0.000002 -0.000002 -0.000006 0.000006 -1.888404 -0.000015 0.000000 0.000001 0.000000 -0.000001 8.078201 -5.402388 -0.535899 -16.080405 4.850905 6.829910 16.711321 7.758385 0.473835 24.647257 3.043094 3.112700 -20.278354 0.134218 -2.681284 0.000001 0.000000 0.000002 -8.078202 -5.402390 -0.751799 -21.182232 -5.602347 -23.275934 14.880607 -2.209408 -0.233363 30.758394 -6.638778 -14.701460 -29.174405 -0.306663 3.257533 -0.000001 0.000000 -0.000002 
2.951258 103.307007 11.837005 6.370794 -0.048085 5.669429 0.000001 9.717308 -1.180200 -1.419160 0.427867 -1.171435 -2.875724 1.048546 0.778011 -2.872227 1.059597 0.778133 -0.000001 14.575871 -1.770353 2.044710 2.314157 -2.477842 -0.000001 6.720177 1.972201 2.044713 2.314158 -2.477846 -0.000000 20.999817 6.162797 -0.000000 -0.000000 -0.000000 6.140195 12.877684 -1.799411 -3.439142 11.809472 18.737977 -56.068360 -58.931091 14.435571 0.000004 -24.805569 -0.000004 18.075952 10.791518 -28.978276 4.128800 -1.207082 2.573356 -1.540057 3.690175 6.142355 3.106232 -1.793406 1.793392 3.946770 7.971397 0.752845 2.788594 -1.610055 1.610013 -0.575584 1.586249 2.542355 2.332946 -1.346949 1.346916 0.000003 0.000001 0.000003 11.999918 -0.333879 2.508164 -0.000010 -0.000003 0.000005 3.298498 0.000012 0.000002 0.000014 0.000008 -0.000042 3.081016 0.000001 -0.000001 -0.000006 -0.000003 0.000000 2.712161 0.000001 -0.000001 0.000008 -0.000004 -0.000004 12.393929 -0.000000 -0.000006 -0.000017 -0.001928 0.015972 3.432207 -0.000020 -0.000009 0.000015 0.001925 -0.015970 3.160931 0.000005 -0.000005 -0.000014 -0.000002 -0.000008 -0.000001 0.000001 0.000003 12.360494 -0.116091 -2.298643 -0.000011 -0.000000 0.000001 2.726101 -0.000048 0.000001 0.000008 -0.000002 -0.000001 2.620280 -0.000002 0.000003 -0.000013 0.000003 0.000002 2.226863 -0.000002 -0.000014 -0.000002 -0.000000 0.000002 10.793237 -0.303576 -4.149961 -0.018100 4.054259 0.511055 2.734597 0.000019 0.000002 -0.018058 -4.054254 -0.511062 2.194005 -0.000006 -0.000005 -0.000001 -0.000000 0.000001 1.975479 -0.000002 -0.000002 0.000002 -0.000002 0.000003 -6.140204 12.877672 -1.741287 0.543132 -2.278745 5.408736 11.692825 -34.304004 58.276342 -0.000006 16.034861 0.000034 7.800236 -2.873567 2.775782 -4.237880 -1.241821 2.593889 -1.849260 -3.581791 -6.586135 -3.173729 -1.832363 1.832349 4.645044 -8.656812 -0.231330 -2.734790 -1.578920 1.578938 -1.269835 0.126071 -2.098679 -2.254749 -1.301775 1.301782 0.000002 -0.000009 0.000001 -12.582386 -0.171995 2.675168 -0.000008 -0.000005 0.000005 -3.117435 -0.000005 0.000001 0.000004 -0.000001 0.000041 -2.856104 0.000030 0.000001 0.000005 0.000004 0.000001 -2.534596 0.000000 -0.000001 0.000000 0.000000 0.000002 -12.213300 -0.000017 -0.000002 0.000004 -0.000002 -0.000001 -3.479238 0.000041 0.000000 -0.000003 -0.000001 0.000002 -3.226038 -0.000015 0.000003 0.000002 -0.000001 0.000001 -2.928000 -0.000013 0.000000 -0.000002 -0.000002 -0.000001 -12.155831 -0.109554 -2.139222 -0.000003 -0.000005 0.000004 -2.821596 0.000017 -0.000001 -0.000007 -0.000011 0.000029 -2.687714 -0.000002 0.000001 0.000003 0.000007 -0.000006 -2.368396 -0.000011 0.000001 0.000002 -0.000000 0.000001 -10.912503 -0.136993 -4.154600 -0.000000 -0.000001 -0.000001 -2.640535 0.000007 -0.000002 0.000005 0.000001 0.000007 -2.149013 -0.000008 -0.000001 -0.000003 -0.000005 0.000005 -1.888402 -0.000013 0.000002 -0.000004 -0.000001 0.000002 8.078202 -5.402398 -0.535897 -17.275181 4.446057 6.937108 19.622300 5.092952 0.321866 18.265468 1.637093 0.296314 -14.599403 -0.000001 0.000003 0.000001 0.000001 -0.000001 -8.078198 -5.402379 -0.751800 -20.820802 -5.629454 -23.898758 14.969121 -2.480456 -0.248604 29.990886 -6.401691 -14.241702 -28.634074 -0.298588 3.213563 -0.000000 0.000000 -0.000004 
